<svg width="919" height="918" viewBox="0 0 919 918" fill="none" xmlns="http://www.w3.org/2000/svg">
<g opacity="0.15">
<g style="mix-blend-mode:multiply">
<path fill-rule="evenodd" clip-rule="evenodd" d="M402.081 865.411C402.081 875.755 399.013 885.868 393.264 894.468C387.515 903.068 379.344 909.769 369.785 913.724C360.227 917.679 349.709 918.71 339.564 916.686C329.42 914.662 320.103 909.674 312.794 902.353C305.485 895.033 300.512 885.709 298.504 875.561C296.495 865.413 297.542 854.897 301.512 845.345C305.482 835.792 312.197 827.632 320.806 821.897C329.415 816.161 339.532 813.108 349.877 813.124C356.739 813.124 363.534 814.477 369.873 817.106C376.212 819.734 381.971 823.587 386.82 828.444C391.668 833.3 395.512 839.065 398.131 845.408C400.749 851.751 402.092 858.548 402.081 865.411V865.411Z" fill="#00ADEE"/>
</g>
<g style="mix-blend-mode:multiply">
<path fill-rule="evenodd" clip-rule="evenodd" d="M241.885 120.861C241.901 144.788 234.819 168.182 221.536 188.084C208.253 207.985 189.365 223.499 167.263 232.663C145.16 241.827 120.836 244.229 97.3677 239.565C73.8996 234.901 52.3422 223.381 35.4232 206.462C18.5042 189.543 6.98397 167.985 2.31998 144.517C-2.34401 121.049 0.0578417 96.7247 9.22178 74.6221C18.3857 52.5194 33.8999 33.6316 53.8013 20.3485C73.7026 7.06539 97.0967 -0.0160797 121.024 2.74161e-05C153.078 2.74161e-05 183.82 12.7335 206.485 35.3993C229.151 58.0651 241.885 88.8066 241.885 120.861V120.861Z" fill="#652D90"/>
</g>
<g style="mix-blend-mode:multiply">
<path d="M719.138 266.074C731.912 245.752 751.078 230.252 773.623 222.013C769.716 184.226 752.213 149.144 724.373 123.296C696.533 97.4488 660.25 82.5954 622.277 81.4999C584.304 80.4044 547.225 93.1415 517.941 117.341C488.657 141.541 469.161 175.555 463.082 213.055C505.778 193.126 553.769 187.522 599.908 197.075C646.047 206.629 687.866 230.83 719.138 266.074V266.074Z" fill="#EB008B"/>
</g>
<g style="mix-blend-mode:multiply">
<path d="M710.749 364.212C687.44 381.548 659.766 392.056 630.824 394.559C601.883 397.063 572.815 391.463 546.875 378.388C520.935 365.312 499.145 345.276 483.944 320.521C468.742 295.766 460.729 267.269 460.802 238.22C460.869 229.759 461.604 221.318 463 212.973C424.282 231.059 391.704 260.082 369.284 296.462C346.863 332.842 335.581 374.99 336.828 417.706C338.075 460.421 351.796 501.838 376.301 536.849C400.805 571.86 435.021 598.933 474.728 614.73C483.702 591.454 498.17 570.692 516.899 554.215C535.628 537.737 558.064 526.032 582.293 520.097C606.522 514.161 631.828 514.172 656.052 520.127C680.277 526.082 702.702 537.806 721.418 554.299C752.816 518.044 771.367 472.438 774.193 424.561C759.998 419.476 747.021 411.481 736.096 401.088C725.171 390.696 716.537 378.135 710.749 364.212V364.212Z" fill="#FAAF40"/>
</g>
<g style="mix-blend-mode:multiply">
<path d="M617.741 395.079C651.258 395.067 683.876 384.242 710.749 364.212C704.156 348.381 701.455 331.201 702.872 314.111C704.289 297.021 709.783 280.52 718.893 265.992C687.621 230.748 645.802 206.547 599.663 196.993C553.524 187.44 505.533 193.045 462.838 212.973C461.441 221.318 460.706 229.76 460.639 238.22C460.649 258.837 464.722 279.249 472.624 298.291C480.526 317.333 492.102 334.632 506.692 349.198C521.281 363.765 538.598 375.315 557.652 383.187C576.706 391.059 597.125 395.1 617.741 395.079V395.079Z" fill="#F1003A"/>
</g>
<g style="mix-blend-mode:multiply">
<path d="M555.601 630.204C527.934 630.209 500.517 624.958 474.81 614.73C464.627 641.112 461.869 669.781 466.835 697.621C471.801 725.461 484.301 751.407 502.978 772.642C521.654 793.877 545.792 809.588 572.77 818.068C599.748 826.548 628.534 827.473 656.001 820.742C683.468 814.011 708.565 799.882 728.566 779.89C748.567 759.898 762.707 734.808 769.45 707.344C776.193 679.88 775.281 651.094 766.813 624.112C758.345 597.13 742.645 572.985 721.418 554.299C700.891 578.164 675.443 597.304 646.82 610.406C618.198 623.509 587.08 630.262 555.601 630.204V630.204Z" fill="#37B34A"/>
</g>
<g style="mix-blend-mode:multiply">
<path d="M474.809 614.729C517.091 631.573 563.576 634.804 607.782 623.972C651.988 613.139 691.712 588.783 721.417 554.299C702.702 537.858 680.294 526.179 656.098 520.254C631.903 514.329 606.634 514.333 582.44 520.265C558.246 526.198 535.842 537.884 517.132 554.33C498.421 570.776 483.958 591.496 474.971 614.729H474.809Z" fill="#1F801E"/>
</g>
<g style="mix-blend-mode:multiply">
<path d="M810.355 215.416C797.825 215.43 785.394 217.635 773.624 221.931C777.006 254.985 769.82 288.261 753.101 316.975C767.185 346.417 774.477 378.647 774.439 411.285C774.439 415.764 774.438 420.162 774.031 424.56C788.825 429.879 804.604 431.895 820.261 430.468C835.917 429.041 851.071 424.206 864.66 416.301C878.249 408.395 889.944 397.612 898.924 384.708C907.903 371.804 913.95 357.091 916.64 341.602C919.33 326.112 918.599 310.222 914.496 295.046C910.393 279.869 903.019 265.774 892.892 253.75C882.764 241.726 870.127 232.064 855.869 225.442C841.61 218.819 826.076 215.397 810.355 215.416V215.416Z" fill="#00ADEE"/>
</g>
<g style="mix-blend-mode:multiply">
<path d="M719.137 266.073C732.825 281.366 744.261 298.533 753.098 317.056C769.818 288.343 777.004 255.067 773.622 222.013C751.077 230.252 731.911 245.751 719.137 266.073V266.073Z" fill="#2E008B"/>
</g>
<g style="mix-blend-mode:multiply">
<path d="M753.1 316.974C742.326 335.424 727.918 351.494 710.75 364.211C716.52 378.118 725.129 390.669 736.025 401.06C746.921 411.452 759.866 419.456 774.031 424.56C774.031 420.162 774.438 415.764 774.438 411.285C774.477 378.647 767.185 346.417 753.1 316.974V316.974Z" fill="#1F801E"/>
</g>
<g style="mix-blend-mode:multiply">
<path d="M702.605 323.083C702.658 337.056 705.424 350.886 710.749 363.804C727.918 351.087 742.326 335.017 753.1 316.568C744.262 298.044 732.826 280.877 719.138 265.585C708.268 282.787 702.533 302.734 702.605 323.083Z" fill="#210034"/>
</g>
</g>
</svg>
