<svg width="329" height="64" viewBox="0 0 329 64" fill="none" xmlns="http://www.w3.org/2000/svg">
<path d="M19.6677 41.0169C18.8298 39.9655 17.7715 39.1193 16.5708 38.5404C15.37 37.9614 14.0574 37.6646 12.7294 37.6718C8.19489 37.6718 4.64377 41.7974 4.64377 46.3691C4.64377 51.4426 8.08562 55.1222 13.0572 55.1222C15.7888 55.1222 17.9741 53.8399 19.7224 51.8328V57.9656C17.6635 59.1111 15.347 59.6877 13.0026 59.6381C5.84569 59.6381 0 54.0072 0 46.6479C0 39.0098 5.79105 33.3231 13.2211 33.3231C15.4584 33.301 17.6623 33.8776 19.6131 34.9957V41.0169H19.6677Z" fill="black"/>
<path d="M29.0647 58.6903H24.4209V22.2284H29.0647V58.6903Z" fill="black"/>
<path d="M59.0033 46.4249C59.0033 49.0382 58.2439 51.5929 56.8211 53.7658C55.3984 55.9387 53.3762 57.6323 51.0103 58.6323C48.6444 59.6324 46.041 59.8941 43.5293 59.3842C41.0177 58.8744 38.7106 57.616 36.8998 55.7681C35.089 53.9201 33.8558 51.5658 33.3562 49.0026C32.8566 46.4395 33.113 43.7828 34.093 41.3684C35.073 38.9539 36.7326 36.8903 38.8619 35.4384C40.9911 33.9865 43.4945 33.2116 46.0554 33.2116C47.7641 33.1806 49.4614 33.5012 51.046 34.1543C52.6306 34.8073 54.0701 35.7795 55.2785 37.0127C56.4869 38.2459 57.4396 39.7148 58.0795 41.3319C58.7195 42.9491 59.0336 44.6811 59.0033 46.4249ZM37.6966 46.4249C37.7288 48.0934 38.2432 49.7151 39.175 51.0865C40.1069 52.4579 41.4148 53.518 42.9348 54.1339C44.4547 54.7497 46.119 54.8938 47.7189 54.5482C49.3188 54.2026 50.7831 53.3826 51.9281 52.191C53.0731 50.9995 53.8479 49.4894 54.1553 47.8503C54.4626 46.2112 54.2889 44.5159 53.6558 42.9772C53.0228 41.4384 51.9586 40.1246 50.5968 39.2007C49.2349 38.2767 47.6361 37.7836 46.0007 37.7833C43.7811 37.8199 41.665 38.7474 40.1107 40.3648C38.5564 41.9823 37.6891 44.1595 37.6966 46.4249Z" fill="black"/>
<path d="M72.5524 39.6231C72.2927 39.0049 71.8683 38.4735 71.3275 38.0892C70.7867 37.7048 70.1511 37.4829 69.493 37.4487C68.8539 37.4473 68.2383 37.6945 67.7715 38.1398C67.3046 38.5852 67.0215 39.1953 66.9799 39.8461C66.9799 42.0204 69.7661 42.9682 72.6616 44.3063C75.5572 45.6443 78.2888 47.4284 78.2888 51.331C78.2888 56.0142 74.4645 59.5266 69.93 59.5266C66.4335 59.5266 62.8824 57.4638 61.5166 53.9514L65.5048 52.1116C66.4882 53.9514 67.6901 55.2337 69.93 55.2337C71.9514 55.2337 73.5904 53.8957 73.5904 51.7213C73.5904 50.439 72.9894 49.77 71.8968 48.9895L67.3623 46.5363C64.6307 45.031 62.7185 43.693 62.7185 40.2921C62.7257 39.3403 62.9165 38.3993 63.28 37.5227C63.6435 36.6461 64.1727 35.8513 64.8373 35.1834C65.5019 34.5156 66.2888 33.9878 67.1533 33.6304C68.0177 33.2729 68.9427 33.0927 69.8754 33.1001C72.8256 33.1001 75.1747 34.7726 76.5406 37.393L72.5524 39.6231Z" fill="black"/>
<path d="M84.9533 47.1497C85.008 51.3868 87.7942 55.3452 92.2741 55.3452C95.8252 55.3452 97.792 53.5054 99.5402 50.5506L103.474 52.8364C102.377 54.9036 100.751 56.6281 98.7686 57.826C96.7866 59.0239 94.523 59.6502 92.2195 59.6382C84.7895 59.6382 80.3096 53.8957 80.3096 46.6479C80.3096 39.0656 84.2978 33.3231 92.1102 33.3231C99.9227 33.3231 103.474 39.1213 103.474 46.5364V47.2612H84.9533V47.1497ZM98.83 43.5258C98.2837 39.8461 95.8799 37.3373 92.1102 37.3373C90.4223 37.3407 88.7932 37.9704 87.5267 39.109C86.2602 40.2477 85.4426 41.8175 85.2265 43.5258H98.83Z" fill="black"/>
<path d="M111.996 38.0063H112.16C113.308 35.1072 115.657 33.2673 118.825 33.2673C120.187 33.3066 121.511 33.7312 122.65 34.4939L120.519 38.7868C119.731 38.0975 118.715 37.7389 117.678 37.7833C112.652 37.7833 112.051 42.5222 112.051 46.5364V58.6903H107.407V33.9364H112.051L111.996 38.0063Z" fill="black"/>
<g style="mix-blend-mode:multiply">
<path fill-rule="evenodd" clip-rule="evenodd" d="M136.303 59.2423C136.303 59.9505 136.097 60.6427 135.711 61.2314C135.326 61.8202 134.778 62.2789 134.136 62.5497C133.495 62.8204 132.79 62.891 132.109 62.7524C131.429 62.6139 130.804 62.2724 130.313 61.7713C129.823 61.2701 129.49 60.6319 129.355 59.9372C129.22 59.2425 129.29 58.5226 129.557 57.8687C129.823 57.2148 130.273 56.6562 130.851 56.2635C131.428 55.8709 132.107 55.6619 132.801 55.663C133.261 55.663 133.717 55.7556 134.142 55.9356C134.568 56.1155 134.954 56.3793 135.279 56.7117C135.604 57.0442 135.862 57.4388 136.038 57.873C136.214 58.3072 136.304 58.7725 136.303 59.2423Z" fill="#00ADEE"/>
</g>
<g style="mix-blend-mode:multiply">
<path fill-rule="evenodd" clip-rule="evenodd" d="M125.557 8.27363C125.558 9.91157 125.083 11.513 124.192 12.8754C123.301 14.2378 122.034 15.2998 120.551 15.9271C119.069 16.5545 117.437 16.7189 115.863 16.3996C114.288 16.0803 112.842 15.2917 111.707 14.1335C110.572 12.9753 109.8 11.4996 109.487 9.89303C109.174 8.2865 109.335 6.62136 109.95 5.10831C110.564 3.59526 111.605 2.30228 112.94 1.39297C114.275 0.483667 115.844 -0.00110075 117.449 1.87679e-06C119.6 1.87679e-06 121.662 0.871681 123.182 2.42329C124.703 3.97489 125.557 6.07933 125.557 8.27363Z" fill="#652D90"/>
</g>
<g style="mix-blend-mode:multiply">
<path d="M157.571 18.2143C158.428 16.8231 159.714 15.7621 161.226 15.1981C160.964 12.6113 159.79 10.2097 157.922 8.44032C156.055 6.6709 153.621 5.6541 151.073 5.57911C148.526 5.50412 146.039 6.37605 144.075 8.03266C142.11 9.68926 140.802 12.0177 140.395 14.5848C143.259 13.2206 146.478 12.8369 149.573 13.4909C152.668 14.1449 155.473 15.8016 157.571 18.2143Z" fill="#EB008B"/>
</g>
<g style="mix-blend-mode:multiply">
<path d="M157.008 24.9324C155.445 26.1192 153.588 26.8385 151.647 27.0098C149.705 27.1812 147.755 26.7979 146.015 25.9028C144.275 25.0077 142.814 23.6361 141.794 21.9415C140.774 20.2469 140.237 18.2961 140.241 16.3075C140.246 15.7284 140.295 15.1505 140.389 14.5792C137.792 15.8173 135.606 17.8041 134.102 20.2945C132.598 22.785 131.842 25.6702 131.925 28.5943C132.009 31.5185 132.929 34.3537 134.573 36.7504C136.217 39.1471 138.512 41.0004 141.176 42.0818C141.778 40.4884 142.748 39.0672 144.005 37.9392C145.261 36.8112 146.766 36.0099 148.391 35.6036C150.017 35.1973 151.714 35.198 153.339 35.6057C154.964 36.0134 156.468 36.8159 157.724 37.945C159.83 35.4631 161.075 32.3411 161.264 29.0636C160.312 28.7155 159.441 28.1682 158.709 27.4568C157.976 26.7454 157.397 25.8855 157.008 24.9324Z" fill="#FAAF40"/>
</g>
<g style="mix-blend-mode:multiply">
<path d="M150.769 27.0454C153.017 27.0446 155.205 26.3036 157.008 24.9324C156.566 23.8487 156.385 22.6726 156.48 21.5027C156.575 20.3328 156.943 19.2032 157.554 18.2087C155.457 15.796 152.651 14.1393 149.556 13.4853C146.461 12.8313 143.242 13.215 140.378 14.5792C140.284 15.1505 140.235 15.7284 140.23 16.3075C140.231 17.7188 140.504 19.1162 141.034 20.4197C141.565 21.7233 142.341 22.9075 143.32 23.9046C144.298 24.9018 145.46 25.6924 146.738 26.2313C148.016 26.7703 149.386 27.0469 150.769 27.0454Z" fill="#F1003A"/>
</g>
<g style="mix-blend-mode:multiply">
<path d="M146.601 43.141C144.745 43.1414 142.906 42.7819 141.182 42.0818C140.499 43.8878 140.314 45.8503 140.647 47.7561C140.98 49.6619 141.818 51.4381 143.071 52.8918C144.324 54.3454 145.943 55.4209 147.753 56.0014C149.563 56.5819 151.494 56.6452 153.336 56.1845C155.179 55.7237 156.862 54.7565 158.204 53.388C159.546 52.0194 160.494 50.3018 160.946 48.4217C161.399 46.5417 161.337 44.5711 160.769 42.724C160.201 40.877 159.148 39.2241 157.724 37.9449C156.347 39.5786 154.64 40.8889 152.72 41.7858C150.8 42.6827 148.713 43.145 146.601 43.141Z" fill="#37B34A"/>
</g>
<g style="mix-blend-mode:multiply">
<path d="M141.182 42.0818C144.018 43.2348 147.136 43.456 150.102 42.7145C153.067 41.9729 155.732 40.3056 157.724 37.945C156.469 36.8195 154.966 36.02 153.343 35.6144C151.72 35.2088 150.025 35.209 148.402 35.6151C146.779 36.0213 145.276 36.8212 144.021 37.9471C142.766 39.0729 141.795 40.4913 141.193 42.0818H141.182Z" fill="#1F801E"/>
</g>
<g style="mix-blend-mode:multiply">
<path d="M163.69 14.7465C162.85 14.7475 162.016 14.8984 161.226 15.1925C161.453 17.4552 160.971 19.7331 159.85 21.6988C160.794 23.7143 161.284 25.9206 161.281 28.1549C161.281 28.4615 161.281 28.7626 161.254 29.0636C162.246 29.4277 163.305 29.5657 164.355 29.4681C165.405 29.3704 166.422 29.0393 167.333 28.4982C168.245 27.957 169.029 27.2189 169.632 26.3355C170.234 25.4521 170.64 24.445 170.82 23.3846C171 22.3243 170.951 21.2365 170.676 20.1976C170.401 19.1587 169.906 18.1938 169.227 17.3707C168.548 16.5476 167.7 15.8861 166.743 15.4328C165.787 14.9795 164.745 14.7452 163.69 14.7465Z" fill="#00ADEE"/>
</g>
<g style="mix-blend-mode:multiply">
<path d="M157.571 18.2143C158.489 19.2611 159.257 20.4363 159.849 21.7044C160.971 19.7387 161.453 17.4608 161.226 15.1981C159.714 15.7621 158.428 16.8231 157.571 18.2143Z" fill="#2E008B"/>
</g>
<g style="mix-blend-mode:multiply">
<path d="M159.85 21.6988C159.127 22.9617 158.16 24.0618 157.009 24.9324C157.396 25.8844 157.973 26.7436 158.704 27.4549C159.435 28.1663 160.304 28.7142 161.254 29.0636C161.254 28.7626 161.281 28.4615 161.281 28.1549C161.284 25.9206 160.795 23.7143 159.85 21.6988Z" fill="#1F801E"/>
</g>
<g style="mix-blend-mode:multiply">
<path d="M156.462 22.1169C156.465 23.0734 156.651 24.0202 157.008 24.9045C158.16 24.034 159.126 22.9339 159.849 21.6709C159.256 20.4029 158.489 19.2276 157.571 18.1808C156.842 19.3584 156.457 20.7239 156.462 22.1169Z" fill="#210034"/>
</g>
<line x1="188.5" y1="31" x2="188.5" y2="63" stroke="black"/>
<path d="M209.7 57V37.32H214.62C217.66 37.32 219.97 38.16 221.55 39.84C223.13 41.52 223.92 43.93 223.92 47.07C223.92 48.63 223.72 50.03 223.32 51.27C222.92 52.49 222.33 53.53 221.55 54.39C220.77 55.23 219.81 55.88 218.67 56.34C217.53 56.78 216.22 57 214.74 57H209.7ZM212.19 54.96H214.44C216.74 54.96 218.46 54.27 219.6 52.89C220.76 51.51 221.34 49.57 221.34 47.07C221.34 44.57 220.76 42.66 219.6 41.34C218.46 40.02 216.74 39.36 214.44 39.36H212.19V54.96Z" fill="#231F20"/>
<path d="M227.917 57V42.42H230.377V57H227.917ZM229.177 39.42C228.697 39.42 228.287 39.27 227.947 38.97C227.627 38.67 227.467 38.29 227.467 37.83C227.467 37.35 227.627 36.97 227.947 36.69C228.287 36.39 228.697 36.24 229.177 36.24C229.657 36.24 230.057 36.39 230.377 36.69C230.717 36.97 230.887 37.35 230.887 37.83C230.887 38.29 230.717 38.67 230.377 38.97C230.057 39.27 229.657 39.42 229.177 39.42Z" fill="#231F20"/>
<path d="M239.11 57.36C238.07 57.36 237.08 57.17 236.14 56.79C235.2 56.41 234.38 55.93 233.68 55.35L234.91 53.7C235.55 54.22 236.2 54.64 236.86 54.96C237.54 55.28 238.32 55.44 239.2 55.44C240.16 55.44 240.88 55.22 241.36 54.78C241.84 54.34 242.08 53.8 242.08 53.16C242.08 52.78 241.98 52.45 241.78 52.17C241.58 51.89 241.32 51.65 241 51.45C240.7 51.23 240.35 51.04 239.95 50.88C239.55 50.72 239.15 50.56 238.75 50.4C238.23 50.22 237.71 50.02 237.19 49.8C236.67 49.56 236.2 49.28 235.78 48.96C235.38 48.62 235.05 48.23 234.79 47.79C234.53 47.35 234.4 46.82 234.4 46.2C234.4 45.62 234.51 45.08 234.73 44.58C234.97 44.06 235.3 43.62 235.72 43.26C236.16 42.88 236.69 42.59 237.31 42.39C237.93 42.17 238.63 42.06 239.41 42.06C240.33 42.06 241.17 42.22 241.93 42.54C242.71 42.86 243.38 43.25 243.94 43.71L242.77 45.27C242.27 44.89 241.75 44.58 241.21 44.34C240.67 44.1 240.08 43.98 239.44 43.98C238.52 43.98 237.84 44.19 237.4 44.61C236.98 45.03 236.77 45.52 236.77 46.08C236.77 46.42 236.86 46.72 237.04 46.98C237.22 47.22 237.46 47.44 237.76 47.64C238.06 47.82 238.4 47.99 238.78 48.15C239.18 48.29 239.59 48.44 240.01 48.6C240.53 48.8 241.05 49.01 241.57 49.23C242.11 49.45 242.59 49.73 243.01 50.07C243.43 50.39 243.77 50.79 244.03 51.27C244.31 51.75 244.45 52.33 244.45 53.01C244.45 53.61 244.33 54.17 244.09 54.69C243.87 55.21 243.53 55.67 243.07 56.07C242.63 56.47 242.07 56.78 241.39 57C240.73 57.24 239.97 57.36 239.11 57.36Z" fill="#231F20"/>
<path d="M253.628 57.36C252.668 57.36 251.768 57.19 250.928 56.85C250.088 56.51 249.358 56.02 248.738 55.38C248.138 54.72 247.658 53.92 247.298 52.98C246.958 52.02 246.788 50.94 246.788 49.74C246.788 48.52 246.978 47.44 247.358 46.5C247.738 45.54 248.248 44.73 248.888 44.07C249.528 43.41 250.268 42.91 251.108 42.57C251.968 42.23 252.868 42.06 253.808 42.06C254.768 42.06 255.588 42.23 256.268 42.57C256.948 42.91 257.548 43.31 258.068 43.77L256.808 45.39C256.388 45.01 255.938 44.7 255.458 44.46C254.998 44.22 254.478 44.1 253.898 44.1C253.238 44.1 252.628 44.24 252.068 44.52C251.508 44.78 251.028 45.16 250.628 45.66C250.228 46.16 249.908 46.76 249.668 47.46C249.448 48.14 249.338 48.9 249.338 49.74C249.338 50.58 249.448 51.34 249.668 52.02C249.888 52.7 250.188 53.29 250.568 53.79C250.968 54.27 251.448 54.65 252.008 54.93C252.568 55.19 253.178 55.32 253.838 55.32C254.518 55.32 255.138 55.18 255.698 54.9C256.278 54.6 256.798 54.25 257.258 53.85L258.338 55.5C257.678 56.08 256.948 56.54 256.148 56.88C255.348 57.2 254.508 57.36 253.628 57.36Z" fill="#231F20"/>
<path d="M266.576 57.36C265.676 57.36 264.816 57.19 263.996 56.85C263.196 56.51 262.486 56.02 261.866 55.38C261.246 54.72 260.746 53.92 260.366 52.98C260.006 52.02 259.826 50.94 259.826 49.74C259.826 48.52 260.006 47.44 260.366 46.5C260.746 45.54 261.246 44.73 261.866 44.07C262.486 43.41 263.196 42.91 263.996 42.57C264.816 42.23 265.676 42.06 266.576 42.06C267.476 42.06 268.326 42.23 269.126 42.57C269.946 42.91 270.666 43.41 271.286 44.07C271.906 44.73 272.396 45.54 272.756 46.5C273.136 47.44 273.326 48.52 273.326 49.74C273.326 50.94 273.136 52.02 272.756 52.98C272.396 53.92 271.906 54.72 271.286 55.38C270.666 56.02 269.946 56.51 269.126 56.85C268.326 57.19 267.476 57.36 266.576 57.36ZM266.576 55.32C267.196 55.32 267.766 55.19 268.286 54.93C268.806 54.65 269.246 54.27 269.606 53.79C269.986 53.29 270.276 52.7 270.476 52.02C270.676 51.34 270.776 50.58 270.776 49.74C270.776 48.9 270.676 48.14 270.476 47.46C270.276 46.76 269.986 46.16 269.606 45.66C269.246 45.16 268.806 44.78 268.286 44.52C267.766 44.24 267.196 44.1 266.576 44.1C265.956 44.1 265.386 44.24 264.866 44.52C264.346 44.78 263.896 45.16 263.516 45.66C263.156 46.16 262.876 46.76 262.676 47.46C262.476 48.14 262.376 48.9 262.376 49.74C262.376 50.58 262.476 51.34 262.676 52.02C262.876 52.7 263.156 53.29 263.516 53.79C263.896 54.27 264.346 54.65 264.866 54.93C265.386 55.19 265.956 55.32 266.576 55.32Z" fill="#231F20"/>
<path d="M280.198 57L274.948 42.42H277.498L280.258 50.7C280.478 51.42 280.698 52.14 280.918 52.86C281.158 53.58 281.388 54.29 281.608 54.99H281.728C281.948 54.29 282.168 53.58 282.388 52.86C282.608 52.14 282.828 51.42 283.048 50.7L285.808 42.42H288.238L283.078 57H280.198Z" fill="#231F20"/>
<path d="M296.845 57.36C295.865 57.36 294.945 57.19 294.085 56.85C293.245 56.49 292.505 55.99 291.865 55.35C291.245 54.69 290.755 53.89 290.395 52.95C290.035 52.01 289.855 50.94 289.855 49.74C289.855 48.54 290.035 47.47 290.395 46.53C290.775 45.57 291.265 44.76 291.865 44.1C292.485 43.44 293.185 42.94 293.965 42.6C294.745 42.24 295.555 42.06 296.395 42.06C297.315 42.06 298.135 42.22 298.855 42.54C299.595 42.86 300.205 43.32 300.685 43.92C301.185 44.52 301.565 45.24 301.825 46.08C302.085 46.92 302.215 47.86 302.215 48.9C302.215 49.16 302.205 49.42 302.185 49.68C302.185 49.92 302.165 50.13 302.125 50.31H292.285C292.385 51.87 292.865 53.11 293.725 54.03C294.605 54.93 295.745 55.38 297.145 55.38C297.845 55.38 298.485 55.28 299.065 55.08C299.665 54.86 300.235 54.58 300.775 54.24L301.645 55.86C301.005 56.26 300.295 56.61 299.515 56.91C298.735 57.21 297.845 57.36 296.845 57.36ZM292.255 48.54H300.055C300.055 47.06 299.735 45.94 299.095 45.18C298.475 44.4 297.595 44.01 296.455 44.01C295.935 44.01 295.435 44.11 294.955 44.31C294.495 44.51 294.075 44.81 293.695 45.21C293.315 45.59 292.995 46.06 292.735 46.62C292.495 47.18 292.335 47.82 292.255 48.54Z" fill="#231F20"/>
<path d="M305.818 57V42.42H307.858L308.068 45.06H308.158C308.658 44.14 309.258 43.41 309.958 42.87C310.678 42.33 311.458 42.06 312.298 42.06C312.878 42.06 313.398 42.16 313.858 42.36L313.378 44.52C313.138 44.44 312.918 44.38 312.718 44.34C312.518 44.3 312.268 44.28 311.968 44.28C311.348 44.28 310.698 44.53 310.018 45.03C309.358 45.53 308.778 46.4 308.278 47.64V57H305.818Z" fill="#231F20"/>
<path d="M317.22 63.27C316.88 63.27 316.57 63.24 316.29 63.18C316.01 63.14 315.75 63.07 315.51 62.97L315.99 61.02C316.15 61.06 316.33 61.1 316.53 61.14C316.73 61.2 316.92 61.23 317.1 61.23C317.94 61.23 318.62 60.93 319.14 60.33C319.68 59.75 320.1 59.01 320.4 58.11L320.73 57.03L314.88 42.42H317.43L320.4 50.49C320.62 51.13 320.85 51.81 321.09 52.53C321.35 53.23 321.59 53.92 321.81 54.6H321.93C322.15 53.94 322.36 53.25 322.56 52.53C322.76 51.81 322.96 51.13 323.16 50.49L325.77 42.42H328.17L322.68 58.2C322.42 58.92 322.13 59.59 321.81 60.21C321.49 60.83 321.11 61.36 320.67 61.8C320.23 62.26 319.73 62.62 319.17 62.88C318.61 63.14 317.96 63.27 317.22 63.27Z" fill="#231F20"/>
</svg>
