<svg width="283" height="103" viewBox="0 0 283 103" fill="none" xmlns="http://www.w3.org/2000/svg">
<path d="M32.5495 67.0594C31.1627 65.3405 29.4113 63.9569 27.4241 63.0104C25.4369 62.064 23.2645 61.5787 21.0668 61.5903C13.5623 61.5903 7.6853 68.3355 7.6853 75.8098C7.6853 84.1045 13.3815 90.1204 21.6093 90.1204C26.13 90.1204 29.7466 88.024 32.6399 84.7425V94.7691C29.2326 96.6419 25.3989 97.5846 21.5189 97.5036C9.67444 97.5036 0 88.2974 0 76.2656C0 63.778 9.58402 54.4806 21.8805 54.4806C25.5832 54.4444 29.2306 55.3873 32.4591 57.2151V67.0594H32.5495Z" fill="black"/>
<path d="M48.1013 95.9541H40.416V36.3417H48.1013V95.9541Z" fill="black"/>
<path d="M97.6489 75.9011C97.6489 80.1737 96.3921 84.3503 94.0375 87.9029C91.6829 91.4554 88.3363 94.2243 84.4207 95.8593C80.5052 97.4944 76.1967 97.9222 72.04 97.0886C67.8832 96.2551 64.0651 94.1976 61.0682 91.1764C58.0714 88.1553 56.0306 84.306 55.2037 80.1155C54.3769 75.925 54.8013 71.5814 56.4231 67.6341C58.045 63.6867 60.7915 60.3128 64.3154 57.9391C67.8393 55.5654 71.9823 54.2984 76.2204 54.2984C79.0483 54.2477 81.8573 54.7719 84.4798 55.8396C87.1023 56.9073 89.4846 58.4967 91.4845 60.5129C93.4844 62.529 95.061 64.9307 96.1201 67.5745C97.1792 70.2184 97.6991 73.0502 97.6489 75.9011ZM62.3869 75.9011C62.4403 78.629 63.2915 81.2803 64.8337 83.5225C66.3759 85.7646 68.5405 87.4978 71.056 88.5047C73.5714 89.5115 76.3258 89.7472 78.9736 89.1821C81.6214 88.617 84.0447 87.2764 85.9397 85.3283C87.8347 83.3802 89.1169 80.9114 89.6256 78.2316C90.1342 75.5517 89.8467 72.7801 88.799 70.2644C87.7513 67.7486 85.9901 65.6007 83.7364 64.0901C81.4826 62.5794 78.8365 61.7733 76.13 61.7727C72.4566 61.8327 68.9545 63.349 66.3822 65.9934C63.8099 68.6378 62.3745 72.1974 62.3869 75.9011Z" fill="black"/>
<path d="M120.072 64.7807C119.642 63.7701 118.939 62.9013 118.044 62.2729C117.149 61.6445 116.098 61.2817 115.008 61.2258C113.951 61.2235 112.932 61.6276 112.159 62.3557C111.387 63.0838 110.918 64.0813 110.849 65.1453C110.849 68.7001 115.46 70.2497 120.252 72.4373C125.044 74.6249 129.565 77.5417 129.565 83.9223C129.565 91.5789 123.236 97.3214 115.732 97.3214C109.945 97.3214 104.068 93.9488 101.808 88.2063L108.408 85.1984C110.035 88.2063 112.025 90.3028 115.732 90.3028C119.077 90.3028 121.789 88.1152 121.789 84.5603C121.789 82.4639 120.795 81.3701 118.987 80.094L111.482 76.0833C106.961 73.6223 103.797 71.4347 103.797 65.8745C103.809 64.3184 104.124 62.7798 104.726 61.3467C105.328 59.9136 106.203 58.6141 107.303 57.5222C108.403 56.4303 109.706 55.5675 111.136 54.9831C112.567 54.3987 114.098 54.1041 115.641 54.1161C120.524 54.1161 124.411 56.8506 126.672 61.1346L120.072 64.7807Z" fill="black"/>
<path d="M140.595 77.0859C140.686 84.0133 145.297 90.485 152.711 90.485C158.588 90.485 161.843 87.4771 164.736 82.6461L171.246 86.3833C169.431 89.7629 166.74 92.5824 163.459 94.5409C160.179 96.4994 156.433 97.5233 152.621 97.5036C140.324 97.5036 132.91 88.1151 132.91 76.2655C132.91 63.8691 139.51 54.4806 152.44 54.4806C165.369 54.4806 171.246 63.9602 171.246 76.0832V77.2682H140.595V77.0859ZM163.561 71.1611C162.657 65.1452 158.679 61.0434 152.44 61.0434C149.646 61.049 146.95 62.0785 144.854 63.9401C142.758 65.8016 141.405 68.3682 141.048 71.1611H163.561Z" fill="black"/>
<path d="M185.352 62.1373H185.623C187.522 57.3975 191.41 54.3895 196.654 54.3895C198.907 54.4537 201.098 55.148 202.983 56.3948L199.457 63.4134C198.152 62.2865 196.472 61.7002 194.755 61.7727C186.437 61.7727 185.442 69.5205 185.442 76.0833V95.9541H177.757V55.4833H185.442L185.352 62.1373Z" fill="black"/>
<g style="mix-blend-mode:multiply">
<path fill-rule="evenodd" clip-rule="evenodd" d="M225.577 96.8565C225.577 98.0143 225.236 99.146 224.598 100.109C223.96 101.071 223.053 101.821 221.992 102.264C220.931 102.706 219.763 102.822 218.637 102.595C217.51 102.369 216.476 101.81 215.665 100.991C214.853 100.172 214.301 99.1283 214.078 97.9925C213.855 96.8568 213.971 95.6799 214.412 94.6107C214.853 93.5416 215.598 92.6283 216.554 91.9864C217.51 91.3445 218.633 91.0028 219.781 91.0046C220.543 91.0046 221.298 91.156 222.001 91.4502C222.705 91.7444 223.345 92.1757 223.883 92.7192C224.421 93.2627 224.848 93.9079 225.139 94.6178C225.429 95.3277 225.578 96.0884 225.577 96.8565Z" fill="#00ADEE"/>
</g>
<g style="mix-blend-mode:multiply">
<path fill-rule="evenodd" clip-rule="evenodd" d="M207.793 13.5267C207.795 16.2046 207.008 18.8229 205.534 21.0503C204.059 23.2776 201.962 25.014 199.508 26.0396C197.055 27.0652 194.354 27.334 191.749 26.812C189.144 26.29 186.75 25.0007 184.872 23.1071C182.994 21.2136 181.715 18.8009 181.197 16.1743C180.679 13.5478 180.946 10.8254 181.963 8.35168C182.981 5.87796 184.703 3.76405 186.912 2.2774C189.122 0.790757 191.719 -0.00179963 194.375 3.0684e-06C197.934 3.0684e-06 201.347 1.42513 203.863 3.96188C206.379 6.49863 207.793 9.93922 207.793 13.5267Z" fill="#652D90"/>
</g>
<g style="mix-blend-mode:multiply">
<path d="M260.776 29.779C262.194 27.5046 264.322 25.7699 266.825 24.8478C266.391 20.6186 264.448 16.6923 261.357 13.7994C258.267 10.9066 254.239 9.24416 250.023 9.12156C245.807 8.99895 241.691 10.4245 238.44 13.1329C235.189 15.8413 233.025 19.6482 232.35 23.8451C237.09 21.6148 242.417 20.9875 247.54 22.0567C252.662 23.126 257.304 25.8345 260.776 29.779Z" fill="#EB008B"/>
</g>
<g style="mix-blend-mode:multiply">
<path d="M259.844 40.7624C257.257 42.7027 254.184 43.8787 250.971 44.1589C247.758 44.4391 244.531 43.8124 241.651 42.349C238.772 40.8856 236.353 38.6431 234.665 35.8726C232.977 33.102 232.088 29.9127 232.096 26.6615C232.103 25.7146 232.185 24.7698 232.34 23.8358C228.042 25.86 224.425 29.1082 221.936 33.1799C219.447 37.2516 218.194 41.9687 218.333 46.7494C218.471 51.5302 219.994 56.1656 222.715 60.0839C225.435 64.0023 229.234 67.0323 233.642 68.8003C234.638 66.1953 236.244 63.8717 238.324 62.0275C240.403 60.1833 242.894 58.8733 245.583 58.209C248.273 57.5447 251.083 57.5459 253.772 58.2124C256.461 58.8789 258.951 60.1911 261.029 62.037C264.514 57.9793 266.574 52.8751 266.888 47.5167C265.312 46.9476 263.871 46.0528 262.658 44.8897C261.445 43.7265 260.487 42.3207 259.844 40.7624Z" fill="#FAAF40"/>
</g>
<g style="mix-blend-mode:multiply">
<path d="M249.519 44.2171C253.24 44.2158 256.861 43.0043 259.845 40.7625C259.113 38.9907 258.813 37.0679 258.97 35.1552C259.127 33.2426 259.737 31.3958 260.749 29.7697C257.277 25.8252 252.634 23.1167 247.512 22.0474C242.39 20.9782 237.062 21.6055 232.322 23.8359C232.167 24.7698 232.086 25.7146 232.078 26.6615C232.079 28.9689 232.531 31.2535 233.409 33.3847C234.286 35.5158 235.571 37.4519 237.191 39.0822C238.81 40.7125 240.733 42.0051 242.848 42.8862C244.964 43.7672 247.23 44.2195 249.519 44.2171Z" fill="#F1003A"/>
</g>
<g style="mix-blend-mode:multiply">
<path d="M242.621 70.5322C239.549 70.5328 236.505 69.9451 233.651 68.8003C232.521 71.7531 232.215 74.9616 232.766 78.0775C233.317 81.1933 234.705 84.0972 236.778 86.4738C238.852 88.8504 241.532 90.6088 244.527 91.5579C247.522 92.507 250.717 92.6105 253.767 91.8572C256.816 91.1039 259.602 89.5226 261.823 87.2851C264.043 85.0476 265.613 82.2395 266.361 79.1657C267.11 76.092 267.009 72.8702 266.069 69.8504C265.129 66.8306 263.386 64.1283 261.029 62.037C258.75 64.7079 255.925 66.8501 252.747 68.3165C249.57 69.7829 246.115 70.5387 242.621 70.5322Z" fill="#37B34A"/>
</g>
<g style="mix-blend-mode:multiply">
<path d="M233.651 68.8002C238.345 70.6854 243.506 71.047 248.414 69.8346C253.321 68.6222 257.731 65.8963 261.029 62.0368C258.951 60.1968 256.464 58.8897 253.778 58.2265C251.091 57.5634 248.286 57.5638 245.6 58.2278C242.914 58.8918 240.427 60.1996 238.35 62.0403C236.273 63.8809 234.667 66.1999 233.669 68.8002H233.651Z" fill="#1F801E"/>
</g>
<g style="mix-blend-mode:multiply">
<path d="M270.902 24.1093C269.511 24.1109 268.131 24.3577 266.824 24.8385C267.2 28.5379 266.402 32.2621 264.546 35.4757C266.11 38.7709 266.919 42.3781 266.915 46.0309C266.915 46.5323 266.915 47.0245 266.87 47.5167C268.512 48.1119 270.264 48.3376 272.002 48.1779C273.74 48.0182 275.422 47.477 276.931 46.5922C278.44 45.7075 279.738 44.5007 280.735 43.0564C281.732 41.6122 282.403 39.9655 282.702 38.232C283 36.4984 282.919 34.72 282.464 33.0214C282.008 31.3229 281.189 29.7454 280.065 28.3997C278.941 27.0539 277.538 25.9725 275.955 25.2314C274.372 24.4902 272.647 24.1072 270.902 24.1093Z" fill="#00ADEE"/>
</g>
<g style="mix-blend-mode:multiply">
<path d="M260.775 29.7789C262.295 31.4904 263.565 33.4118 264.546 35.4849C266.402 32.2713 267.2 28.5471 266.824 24.8477C264.321 25.7698 262.194 27.5045 260.775 29.7789Z" fill="#2E008B"/>
</g>
<g style="mix-blend-mode:multiply">
<path d="M264.546 35.4757C263.35 37.5406 261.751 39.3391 259.845 40.7624C260.485 42.3189 261.441 43.7236 262.651 44.8866C263.86 46.0496 265.297 46.9454 266.87 47.5167C266.87 47.0245 266.915 46.5322 266.915 46.0309C266.92 42.3781 266.11 38.7709 264.546 35.4757Z" fill="#1F801E"/>
</g>
<g style="mix-blend-mode:multiply">
<path d="M258.941 36.1593C258.946 37.7232 259.253 39.271 259.845 40.7169C261.751 39.2936 263.35 37.495 264.546 35.4301C263.565 33.357 262.296 31.4357 260.776 29.7241C259.569 31.6494 258.932 33.8819 258.941 36.1593Z" fill="#210034"/>
</g>
</svg>
