<?xml version="1.0" encoding="utf-8"?>
<!-- Generator: Adobe Illustrator 24.3.0, SVG Export Plug-In . SVG Version: 6.00 Build 0)  -->
<svg version="1.1" id="ESR-RGB" xmlns="http://www.w3.org/2000/svg" xmlns:xlink="http://www.w3.org/1999/xlink" x="0px" y="0px"
	 viewBox="0 0 641.5 173.7" style="enable-background:new 0 0 641.5 173.7;" xml:space="preserve">
<style type="text/css">
	.st0{fill:#2E2D62;}
	.st1{fill:#FFFFFF;}
	.st2{fill:#FF5A5A;}
	.st3{fill:#CB3564;}
</style>
<g>
	<g>
		<g>
			<path class="st0" d="M340.7,63.6v5h-18.9V40.5h18.5v5h-13.3v6.4h12.1v5h-12.1v6.7H340.7z"/>
			<path class="st0" d="M353.2,68.8c-5.6,0-10.2-4.3-10.2-10.2c0-6,4.7-10.3,10.4-10.3c4.6,0,8.5,2.9,9.6,7.6h-5.5
				c-0.8-1.6-2.3-2.7-4.3-2.7c-2.8,0-5.1,2.3-5.1,5.4s2.3,5.4,5.1,5.4c1.8,0,3.2-0.9,4.1-2.4h5.5C361.6,66.3,357.4,68.8,353.2,68.8z
				"/>
			<path class="st0" d="M365.6,58.6c0-6.4,5-10.3,10.4-10.3c5.4,0,10.2,3.9,10.2,10.2c0,6.4-4.9,10.3-10.3,10.3
				C370.4,68.8,365.6,64.9,365.6,58.6z M380.9,58.5c0-3.1-1.8-5.6-4.9-5.6s-5.1,2.5-5.1,5.6s2.1,5.6,5.1,5.6S380.9,61.7,380.9,58.5z
				"/>
			<path class="st0" d="M408.9,57.7v10.9h-5.3v-9.7c0-0.7,0.5-5.7-3.4-6c-1.9-0.1-5.3,0.9-5.3,6.2v9.4h-5.3V48.5h4.1l0.7,2.5h0.7
				c0.8-1,2.7-2.7,6.1-2.7C406.4,48.3,408.9,52.2,408.9,57.7z"/>
			<path class="st0" d="M412.4,58.6c0-6.4,5-10.3,10.4-10.3c5.4,0,10.2,3.9,10.2,10.2c0,6.4-4.9,10.3-10.3,10.3
				C417.1,68.8,412.4,64.9,412.4,58.6z M427.6,58.5c0-3.1-1.8-5.6-4.9-5.6s-5.1,2.5-5.1,5.6s2.1,5.6,5.1,5.6S427.6,61.7,427.6,58.5z
				"/>
			<path class="st0" d="M466.4,57.7v10.9H461v-9.7c0-2.8,0.3-6.3-3.4-6c-1,0.1-3.6,0.5-3.6,6.2v9.4h-5.3v-9.7c0-2.8,0.3-6.3-3.4-6
				c-1,0.1-3.6,0.5-3.6,6.2v9.4h-5.3V48.5h4.1l0.6,2.2h0.6c0.8-1,2.4-2.3,4.9-2.4c2.3,0,4.2,1,5.5,2.8h0.6c1-1.2,2.9-2.8,6.1-2.8
				C464,48.2,466.4,52.1,466.4,57.7z"/>
			<path class="st0" d="M469.7,42.9c0-1.9,1.6-3.4,3.5-3.4c1.8,0,3.4,1.5,3.4,3.4c0,1.8-1.5,3.4-3.4,3.4
				C471.3,46.2,469.7,44.7,469.7,42.9z M475.7,68.6h-5.1V48.5h5.1V68.6z"/>
			<path class="st0" d="M489.6,68.8c-5.6,0-10.2-4.3-10.2-10.2c0-6,4.7-10.3,10.4-10.3c4.6,0,8.5,2.9,9.6,7.6H494
				c-0.8-1.6-2.3-2.7-4.3-2.7c-2.8,0-5.1,2.3-5.1,5.4s2.3,5.4,5.1,5.4c1.8,0,3.2-0.9,4.1-2.4h5.5C498,66.3,493.9,68.8,489.6,68.8z"
				/>
			<path class="st0" d="M340.7,105.9v3.9h-1.2c-2.3,0-4-0.8-4.7-2.6c-1.2,1.6-3.2,2.8-6.4,2.8c-4.5,0-7.4-2.3-7.4-6
				c0-6.3,8.6-6.8,12.4-7c-0.1-2.3-1.4-3.2-3.4-3.2c-2.9,0-3.1,1.7-3.1,1.7h-5c0.4-3.6,3.3-6.1,8.2-6.1c4.8,0,8.2,2.4,8.2,8.2v5.3
				C338.3,105.4,339.1,105.9,340.7,105.9z M333.3,101.3v-0.4c-3.7,0.4-7.3,0.8-7.3,2.9C326.1,106.9,333,106.7,333.3,101.3z"/>
			<path class="st0" d="M362.9,98.9v10.9h-5.3v-9.7c0-0.7,0.5-5.8-3.4-6c-1.9-0.1-5.3,0.9-5.3,6.2v9.4h-5.3V89.7h4.1l0.7,2.5h0.7
				c0.8-1,2.7-2.7,6.1-2.7C360.4,89.5,362.9,93.3,362.9,98.9z"/>
			<path class="st0" d="M386,81.2v28.5H382l-0.6-1.9h-0.6c-1.2,1.4-2.9,2.1-5.1,2.1c-5.1,0-9.4-4.2-9.4-10.3s4.3-10.3,9.4-10.3
				c2.1,0,3.9,0.7,5.2,2.2V81.2H386z M380.9,99.7c0-3.3-1.8-5.3-4.4-5.3c-2.5,0-4.9,1.8-4.9,5.3s2.5,5.3,4.9,5.3
				C379.1,105,380.9,103.1,380.9,99.7z"/>
			<path class="st0" d="M410.5,110c-6.2,0-10.4-4-10.4-9.3h5.2c0.5,3.5,3.4,4.3,5.1,4.3c1.4,0,4.1-0.5,4.1-3.1
				c0-2.4-2.3-3.3-4.6-4.2c-3.8-1.5-9.1-3.3-9.1-8.6c0-4.7,4.1-7.6,9.2-7.6c5.8,0,9.1,3.9,9.1,7.5H414c-0.3-1.6-2-2.6-4-2.6
				c-1.9,0-3.5,1-3.5,2.7c0,1.7,1.6,2.4,4.3,3.7c2.9,1.3,9.2,2.9,9.2,9.2C419.9,107.2,415.6,110,410.5,110z"/>
			<path class="st0" d="M422.4,99.8c0-6.4,5-10.3,10.4-10.3c5.4,0,10.2,3.9,10.2,10.2c0,6.4-4.9,10.3-10.3,10.3
				C427.2,110,422.4,106.1,422.4,99.8z M437.7,99.7c0-3.1-1.8-5.6-4.9-5.6s-5.1,2.5-5.1,5.6c0,3.1,2.1,5.6,5.1,5.6
				S437.7,102.9,437.7,99.7z"/>
			<path class="st0" d="M455.9,110c-5.6,0-10.2-4.3-10.2-10.2c0-6,4.7-10.3,10.4-10.3c4.6,0,8.5,2.9,9.6,7.6h-5.5
				c-0.8-1.6-2.3-2.7-4.3-2.7c-2.8,0-5.1,2.3-5.1,5.4c0,3.1,2.3,5.4,5.1,5.4c1.8,0,3.2-0.9,4.1-2.4h5.5
				C464.3,107.5,460.2,110,455.9,110z"/>
			<path class="st0" d="M468.9,84.1c0-1.9,1.6-3.4,3.5-3.4c1.8,0,3.4,1.5,3.4,3.4c0,1.8-1.5,3.4-3.4,3.4
				C470.4,87.4,468.9,85.9,468.9,84.1z M474.9,109.8h-5.1V89.7h5.1V109.8z"/>
			<path class="st0" d="M498.4,105.9v3.9h-1.2c-2.3,0-4-0.8-4.7-2.6c-1.2,1.6-3.2,2.8-6.4,2.8c-4.5,0-7.4-2.3-7.4-6
				c0-6.3,8.6-6.8,12.4-7c-0.1-2.3-1.4-3.2-3.4-3.2c-2.9,0-3.1,1.7-3.1,1.7h-5c0.4-3.6,3.3-6.1,8.2-6.1c4.8,0,8.2,2.4,8.2,8.2v5.3
				C496,105.4,496.8,105.9,498.4,105.9z M491,101.3v-0.4c-3.7,0.4-7.3,0.8-7.3,2.9C483.8,106.9,490.7,106.7,491,101.3z"/>
			<path class="st0" d="M506.2,81.2v28.5H501V81.2H506.2z"/>
			<path class="st0" d="M336.2,151l-6-10.3h-3.3V151h-5.1v-28.1h9.9c4.6,0,8.7,3.1,8.7,8.6c0,3.9-2.2,6.8-5.1,8.2l6.8,11.3H336.2z
				 M326.9,135.7h4.4c2.3,0,3.8-1.8,3.8-4.1s-1.6-3.7-3.8-3.7h-4.4V135.7z"/>
			<path class="st0" d="M362.7,142.5h-14.7c0.6,3.1,3.1,4.2,5.3,4.2c2.7,0,3.9-1.7,3.9-1.7h5.1c-1.5,4-5.2,6.2-9.1,6.2
				c-5.4,0-10.2-4.1-10.2-10.4c0-6.2,4.7-10.1,10-10.1C358.1,130.7,363.4,134.3,362.7,142.5z M348.4,138.4h9
				c-0.6-2.4-2.3-3.3-4.3-3.3C351,135.1,349.2,136.3,348.4,138.4z"/>
			<path class="st0" d="M373.7,134.9c-1.7,0-2.4,0.8-2.4,1.7c0,1.4,1.8,1.8,3,2c3.6,0.8,7.2,1.8,7.2,6.1c0,4.1-3.4,6.4-7.6,6.4
				c-4.6,0-8.2-2.8-8.4-7.1h4.9c0.1,1.2,0.9,2.8,3.4,2.8c2.1,0,2.5-1.1,2.5-1.9c0-1.5-1.4-1.9-2.8-2.3c-2.4-0.5-7.5-1.5-7.5-6.1
				c0-3.9,3.8-6,7.7-6c4.5,0,7.5,2.7,7.7,6.1h-4.9C376.4,136.1,375.8,134.9,373.7,134.9z"/>
			<path class="st0" d="M403.7,142.5h-14.7c0.6,3.1,3.1,4.2,5.3,4.2c2.7,0,3.9-1.7,3.9-1.7h5.1c-1.5,4-5.2,6.2-9.1,6.2
				c-5.4,0-10.2-4.1-10.2-10.4c0-6.2,4.7-10.1,10-10.1C399.2,130.7,404.4,134.3,403.7,142.5z M389.4,138.4h9
				c-0.6-2.4-2.3-3.3-4.3-3.3C392,135.1,390.2,136.3,389.4,138.4z"/>
			<path class="st0" d="M426.1,147.1v3.9h-1.2c-2.3,0-4-0.8-4.7-2.6c-1.2,1.6-3.2,2.8-6.4,2.8c-4.5,0-7.4-2.3-7.4-6
				c0-6.3,8.6-6.8,12.4-7c-0.1-2.3-1.4-3.2-3.4-3.2c-2.9,0-3.1,1.7-3.1,1.7h-5c0.4-3.6,3.3-6.1,8.2-6.1c4.8,0,8.2,2.4,8.2,8.2v5.3
				C423.7,146.6,424.5,147.1,426.1,147.1z M418.7,142.5v-0.4c-3.7,0.4-7.3,0.8-7.3,2.9C411.5,148.1,418.4,147.9,418.7,142.5z"/>
			<path class="st0" d="M441.9,130.7v5.1c-0.4-0.1-1.1-0.2-1.8-0.2c-2.8,0-5.7,1.4-5.7,5.1V151H429v-20.1h4.1l0.7,2.2h0.6
				c0.9-0.9,2.9-2.4,6.2-2.4H441.9z"/>
			<path class="st0" d="M453.3,151.2c-5.6,0-10.2-4.3-10.2-10.2c0-6,4.7-10.3,10.4-10.3c4.6,0,8.5,2.9,9.6,7.6h-5.5
				c-0.8-1.6-2.3-2.7-4.3-2.7c-2.8,0-5.1,2.3-5.1,5.4s2.3,5.4,5.1,5.4c1.8,0,3.2-0.9,4.1-2.4h5.5
				C461.7,148.7,457.6,151.2,453.3,151.2z"/>
			<path class="st0" d="M485.6,140.1V151h-5.4v-9.7c0-2,0.3-6-3.3-6c-1.8,0-5.2,0.9-5.2,6.2v9.4h-5.4v-28.5h5.1V133h0.7
				c1-1,2.8-2.3,5.8-2.3C483.1,130.7,485.6,134.5,485.6,140.1z"/>
			<path class="st0" d="M522.7,142.5c-1.6,5.4-6.1,8.6-11.5,8.6c-7.4,0-12.7-6-12.7-14.3s5.3-14.3,12.7-14.3c5.4,0,10,3.3,11.6,8.6
				h-6.1c-1-2.3-2.9-3.3-5.4-3.3c-4.6,0-7.2,3.7-7.2,9c0,5.2,2.7,9,7.3,9c2.5,0,4.3-1.1,5.3-3.3H522.7z"/>
			<path class="st0" d="M524.9,141c0-6.4,5-10.3,10.4-10.3c5.4,0,10.2,3.9,10.2,10.2c0,6.4-4.9,10.3-10.3,10.3
				C529.6,151.2,524.9,147.3,524.9,141z M540.1,140.9c0-3.1-1.8-5.6-4.9-5.6s-5.1,2.5-5.1,5.6s2.1,5.6,5.1,5.6
				S540.1,144.1,540.1,140.9z"/>
			<path class="st0" d="M568.1,130.9V151h-4l-0.7-2.3h-0.5c-0.8,1-2.6,2.5-5.9,2.5c-5.3,0-8.1-3.8-8.1-9.4v-10.9h5.5v9.7
				c0,2.5,0.2,6,3.7,6c1.8,0,4.7-0.9,4.7-6.2v-9.4H568.1z"/>
			<path class="st0" d="M592.1,140.1V151h-5.3v-9.7c0-0.7,0.5-5.8-3.4-6c-1.9-0.1-5.3,0.9-5.3,6.2v9.4h-5.3v-20.1h4.1l0.7,2.5h0.7
				c0.8-1,2.7-2.7,6.1-2.7C589.6,130.7,592.1,134.5,592.1,140.1z"/>
			<path class="st0" d="M605.8,151.2c-5.6,0-10.2-4.3-10.2-10.2c0-6,4.7-10.3,10.4-10.3c4.6,0,8.5,2.9,9.6,7.6h-5.5
				c-0.8-1.6-2.3-2.7-4.3-2.7c-2.8,0-5.1,2.3-5.1,5.4s2.3,5.4,5.1,5.4c1.8,0,3.2-0.9,4.1-2.4h5.5C614.2,148.7,610,151.2,605.8,151.2
				z"/>
			<path class="st0" d="M618.7,125.3c0-1.9,1.6-3.4,3.5-3.4c1.8,0,3.4,1.5,3.4,3.4c0,1.8-1.5,3.4-3.4,3.4
				C620.3,128.6,618.7,127.1,618.7,125.3z M624.7,151h-5.1v-20.1h5.1V151z"/>
			<path class="st0" d="M634.4,122.4V151h-5.2v-28.5H634.4z"/>
		</g>
	</g>
	<g>
		<rect x="7.1" y="24.9" class="st0" width="141.7" height="141.7"/>
		<path class="st1" d="M133.2,40.5h-16.5L94.5,64.1V40.5H62.4v31.4c0,6.7-5,10.6-11.6,10.6s-11.6-3.9-11.6-10.6V40.5H22.7v31.6
			c0,14.2,11.4,22.3,24.4,23.6H22.7V151h16.5v-20.5h7.2L61.7,151h71.5v-11.2h-19.4v-32.9h19.4V92.3L109.5,68l23.7-24.2V40.5z
			 M78,78.8v25.6c-3.5-5.9-11.6-8.7-23.6-8.7C65,94.6,75,88.9,78,78.8z M39.2,106.9h15.1c6.2,0,8.7,2.4,8.7,6.2s-2.5,6.3-8.7,6.3
			H39.2V106.9z M97.3,139.8H78v7.7l-13.6-17.9c10.4-1.9,15.7-7.3,15.7-16.6c0-2.3-0.3-4.4-1-6.2h18.2V139.8z M116.7,95.7H94.5V72
			L116.7,95.7z"/>
	</g>
	<g>
		<g>
			<polyline class="st2" points="235,40.8 250.6,24.9 268,7.1 235,7.1 235,7.1 148.8,7.1 148.8,24.9 148.8,166.6 250.8,166.6 
				181.4,95.5 235,40.8 			"/>
		</g>
		<polygon class="st3" points="250.6,24.9 235,40.8 235,40.8 235,40.8 181.4,95.5 250.8,166.6 290.5,166.6 290.5,24.9 		"/>
	</g>
</g>
</svg>
