<svg width="111" height="111" viewBox="0 0 111 111" fill="none" xmlns="http://www.w3.org/2000/svg">
<g style="mix-blend-mode:multiply">
<path fill-rule="evenodd" clip-rule="evenodd" d="M48.5053 104.399C48.5053 105.647 48.1351 106.867 47.4416 107.904C46.748 108.942 45.7624 109.75 44.6092 110.227C43.4561 110.704 42.1873 110.829 40.9635 110.585C39.7397 110.34 38.6158 109.739 37.7341 108.856C36.8524 107.972 36.2524 106.848 36.0101 105.623C35.7679 104.399 35.8942 103.131 36.3731 101.978C36.852 100.826 37.662 99.8416 38.7006 99.1497C39.7391 98.4578 40.9596 98.0895 42.2075 98.0914C43.0354 98.0914 43.8551 98.2546 44.6198 98.5717C45.3846 98.8888 46.0793 99.3536 46.6642 99.9395C47.2491 100.525 47.7128 101.221 48.0287 101.986C48.3446 102.751 48.5066 103.571 48.5053 104.399Z" fill="#00ADEE"/>
</g>
<g style="mix-blend-mode:multiply">
<path fill-rule="evenodd" clip-rule="evenodd" d="M29.1798 14.5801C29.1818 17.4665 28.3275 20.2887 26.7251 22.6895C25.1227 25.0903 22.8441 26.9619 20.1778 28.0674C17.5114 29.1729 14.5771 29.4626 11.746 28.9C8.91489 28.3373 6.31431 26.9476 4.27329 24.9065C2.23226 22.8655 0.842513 20.2649 0.279871 17.4338C-0.282771 14.6028 0.00697774 11.6684 1.11247 9.00205C2.21796 6.33569 4.08952 4.05716 6.49033 2.45475C8.89113 0.852335 11.7133 -0.00193977 14.5997 3.30735e-06C18.4666 3.30735e-06 22.1751 1.53611 24.9094 4.2704C27.6437 7.0047 29.1798 10.7132 29.1798 14.5801Z" fill="#652D90"/>
</g>
<g style="mix-blend-mode:multiply">
<path d="M86.7531 32.0979C88.2941 29.6464 90.6062 27.7766 93.3259 26.7827C92.8546 22.2241 90.7432 17.9921 87.3847 14.8739C84.0262 11.7558 79.6492 9.96393 75.0683 9.83178C70.4874 9.69963 66.0144 11.2362 62.4817 14.1555C58.949 17.0748 56.5972 21.1781 55.8638 25.7019C61.0144 23.2979 66.8038 22.6217 72.3698 23.7742C77.9358 24.9267 82.9806 27.8462 86.7531 32.0979Z" fill="#EB008B"/>
</g>
<g style="mix-blend-mode:multiply">
<path d="M85.7414 43.9367C82.9295 46.0281 79.591 47.2957 76.0997 47.5977C72.6083 47.8997 69.1018 47.2243 65.9724 45.6469C62.8431 44.0695 60.2145 41.6524 58.3807 38.6661C56.5469 35.6798 55.5802 32.2421 55.5889 28.7377C55.5971 27.7171 55.6858 26.6987 55.8542 25.692C51.1834 27.8739 47.2534 31.375 44.5487 35.7638C41.844 40.1525 40.4829 45.2369 40.6333 50.39C40.7837 55.543 42.4391 60.5394 45.3952 64.7629C48.3513 68.9864 52.4789 72.2523 57.269 74.158C58.3515 71.3501 60.0969 68.8456 62.3563 66.8578C64.6157 64.87 67.3222 63.458 70.2451 62.742C73.168 62.0259 76.2207 62.0272 79.143 62.7456C82.0654 63.464 84.7707 64.8783 87.0285 66.868C90.8161 62.4944 93.0541 56.9927 93.395 51.217C91.6825 50.6035 90.1171 49.6391 88.7992 48.3854C87.4812 47.1317 86.4397 45.6164 85.7414 43.9367Z" fill="#FAAF40"/>
</g>
<g style="mix-blend-mode:multiply">
<path d="M74.5215 47.6604C78.5647 47.659 82.4997 46.3531 85.7415 43.9368C84.9461 42.0271 84.6203 39.9545 84.7912 37.8929C84.9622 35.8312 85.6249 33.8406 86.7239 32.088C82.9515 27.8363 77.9066 24.9168 72.3406 23.7643C66.7746 22.6118 60.9852 23.288 55.8346 25.692C55.6662 26.6987 55.5775 27.7171 55.5693 28.7377C55.5706 31.2248 56.0619 33.6873 57.0152 35.9844C57.9684 38.2816 59.3649 40.3684 61.1249 42.1256C62.8849 43.8829 64.9739 45.2762 67.2725 46.2258C69.5712 47.1755 72.0344 47.663 74.5215 47.6604Z" fill="#F1003A"/>
</g>
<g style="mix-blend-mode:multiply">
<path d="M67.0252 76.0248C63.6876 76.0254 60.3802 75.3919 57.279 74.1581C56.0506 77.3407 55.7179 80.7992 56.3169 84.1576C56.916 87.5161 58.424 90.6462 60.677 93.2078C62.93 95.7695 65.8419 97.6648 69.0964 98.6878C72.3509 99.7108 75.8235 99.8224 79.137 99.0104C82.4504 98.1985 85.478 96.494 87.8909 94.0823C90.3037 91.6705 92.0095 88.6437 92.8229 85.3306C93.6363 82.0175 93.5263 78.5449 92.5048 75.2899C91.4832 72.035 89.5893 69.1222 87.0286 66.868C84.5523 69.747 81.4823 72.056 78.0295 73.6365C74.5766 75.2171 70.8227 76.0318 67.0252 76.0248Z" fill="#37B34A"/>
</g>
<g style="mix-blend-mode:multiply">
<path d="M57.2788 74.158C62.3796 76.19 67.9872 76.5798 73.3201 75.273C78.6529 73.9662 83.445 71.028 87.0285 66.868C84.7708 64.8847 82.0676 63.4758 79.1487 62.761C76.2299 62.0462 73.1816 62.0466 70.2629 62.7623C67.3443 63.478 64.6416 64.8877 62.3844 66.8717C60.1273 68.8557 58.3826 71.3553 57.2984 74.158H57.2788Z" fill="#1F801E"/>
</g>
<g style="mix-blend-mode:multiply">
<path d="M97.7575 25.9867C96.2459 25.9885 94.7464 26.2545 93.3264 26.7727C93.7344 30.7602 92.8676 34.7744 90.8506 38.2383C92.5497 41.7901 93.4294 45.6782 93.4247 49.6155C93.4247 50.1558 93.4247 50.6864 93.3756 51.2169C95.1603 51.8585 97.0638 52.1018 98.9525 51.9296C100.841 51.7575 102.669 51.1741 104.309 50.2205C105.948 49.2669 107.359 47.9661 108.442 46.4093C109.525 44.8526 110.255 43.0777 110.579 41.2092C110.904 39.3406 110.815 37.4237 110.321 35.5929C109.826 33.7621 108.936 32.0617 107.714 30.6112C106.493 29.1607 104.968 27.9951 103.248 27.1962C101.528 26.3973 99.654 25.9845 97.7575 25.9867Z" fill="#00ADEE"/>
</g>
<g style="mix-blend-mode:multiply">
<path d="M86.7534 32.0978C88.4047 33.9426 89.7842 36.0136 90.8504 38.2482C92.8674 34.7843 93.7342 30.7701 93.3262 26.7825C90.6065 27.7765 88.2944 29.6462 86.7534 32.0978Z" fill="#2E008B"/>
</g>
<g style="mix-blend-mode:multiply">
<path d="M90.8506 38.2383C89.5509 40.464 87.8128 42.4026 85.7417 43.9367C86.4378 45.6144 87.4763 47.1285 88.7907 48.382C90.1052 49.6356 91.6668 50.6011 93.3756 51.2169C93.3756 50.6864 93.4247 50.1558 93.4247 49.6155C93.4294 45.6782 92.5498 41.7901 90.8506 38.2383Z" fill="#1F801E"/>
</g>
<g style="mix-blend-mode:multiply">
<path d="M84.7589 38.9752C84.7652 40.6608 85.0989 42.3292 85.7414 43.8876C87.8125 42.3535 89.5505 40.4149 90.8503 38.1892C89.7841 35.9546 88.4046 33.8836 86.7533 32.0388C85.4421 34.1141 84.7502 36.5204 84.7589 38.9752Z" fill="#210034"/>
</g>
</svg>
