<svg width="32" height="32" viewBox="0 0 32 32" fill="none" xmlns="http://www.w3.org/2000/svg">
<rect x="1" y="3.78259" width="30" height="27.2174" rx="2" stroke="#231F20" stroke-width="2"/>
<path d="M6 11.7391C6 11.463 6.22386 11.2391 6.5 11.2391H11V16.3344H6V11.7391Z" stroke="#231F20"/>
<path d="M10.9658 11.7391C10.9658 11.463 11.1897 11.2391 11.4658 11.2391H15.9658V16.3344H10.9658V11.7391Z" stroke="#231F20"/>
<path d="M15.9658 11.7391C15.9658 11.463 16.1897 11.2391 16.4658 11.2391H20.9658V16.3344H15.9658V11.7391Z" stroke="#231F20"/>
<path d="M20.9658 11.7391C20.9658 11.463 21.1897 11.2391 21.4658 11.2391H25.4658C25.742 11.2391 25.9658 11.463 25.9658 11.7391V16.3344H20.9658V11.7391Z" stroke="#231F20"/>
<path d="M6 16.74C6 16.4638 6.22386 16.24 6.5 16.24H11V21.3352H6V16.74Z" stroke="#231F20"/>
<path d="M10.9658 16.74C10.9658 16.4638 11.1897 16.24 11.4658 16.24H15.9658V21.3352H10.9658V16.74Z" stroke="#231F20"/>
<path d="M15.9658 16.74C15.9658 16.4638 16.1897 16.24 16.4658 16.24H20.9658V21.3352H15.9658V16.74Z" stroke="#231F20"/>
<path d="M20.9658 16.74C20.9658 16.4638 21.1897 16.24 21.4658 16.24H25.9658V21.3352H20.9658V16.74Z" stroke="#231F20"/>
<path d="M6 21.74C6 21.4638 6.22386 21.24 6.5 21.24H11V26.3352H6.5C6.22386 26.3352 6 26.1114 6 25.8352V21.74Z" stroke="#231F20"/>
<path d="M10.9658 21.74C10.9658 21.4638 11.1897 21.24 11.4658 21.24H15.9658V26.3352H10.9658V21.74Z" stroke="#231F20"/>
<path d="M15.9658 21.74C15.9658 21.4638 16.1897 21.24 16.4658 21.24H20.9658V26.3352H15.9658V21.74Z" stroke="#231F20"/>
<path d="M20.9658 21.74C20.9658 21.4638 21.1897 21.24 21.4658 21.24H25.9658V25.8352C25.9658 26.1114 25.742 26.3352 25.4658 26.3352H20.9658V21.74Z" stroke="#231F20"/>
<rect x="4.17383" width="1.3913" height="8.34783" rx="0.695652" fill="#414141"/>
<rect x="9.73926" width="1.3913" height="8.34783" rx="0.695652" fill="#414141"/>
<rect x="15.3047" width="1.3913" height="8.34783" rx="0.695652" fill="#414141"/>
<rect x="20.8691" width="1.3913" height="8.34783" rx="0.695652" fill="#414141"/>
<rect x="26.4346" width="1.3913" height="8.34783" rx="0.695652" fill="#414141"/>
</svg>
